# xmcd
#
# Track frame offsets:
#	182
#	17570
#	35447
#	52595
#	58480
#
# Disc length: 793 seconds
#
# Revision: 1
# Processed by: cddbd v1.4PL0 Copyright (c) Steve Scherf et al.
# Submitted via: EasyCDDAExtractor 5.0.7
#
DISCID=37031705
DTITLE=Tamia - Can't Go For That
DYEAR=1900
DGENRE=
TTITLE0=Can't Go For That(Album Version)
TTITLE1=Can't Go For That(Jonathan Peters' Radio Mix @ 127 BPM-Vox Up)
TTITLE2=Can't Go For That(Jonathan Peters' Radio Mix @ 133 BPM-Vox Up)
TTITLE3=Can't Go For That(Audio Bio)
TTITLE4=Can't Go For That(Call-Out Hook)
EXTD=
EXTT0=
EXTT1=
EXTT2=
EXTT3=
EXTT4=
PLAYORDER=
